# xmcd CD database file
#
# Track frame offsets:
#	150
#	9649
#	25754
#	37486
#	57444
#	78833
#	96430
#	110609
#	126735
#	140089
#	155623
#	167386
#
# Disc length: 2570 seconds
#
# Revision: 0
# Processed by: cddbd v1.5.2PL0 Copyright (c) Steve Scherf et al.
# Submitted via: CDex 1.70beta2
#
DISCID=a90a080c
DTITLE=George Shearing - Music to Hear
DYEAR=2005
DGENRE=Jazz
TTITLE0=Taking a Chance on Love
TTITLE1=The Summer Knows
TTITLE2=Children's Waltz
TTITLE3=Change Partners
TTITLE4=Wave
TTITLE5=What Kind of Fool Am I
TTITLE6=Love Story
TTITLE7=Cream Dancing
TTITLE8=I Predict
TTITLE9=This Is All I Ask
TTITLE10=Beautiful Love
TTITLE11=Alfie
EXTD=YEAR: 2005
EXTT0=
EXTT1=
EXTT2=
EXTT3=
EXTT4=
EXTT5=
EXTT6=
EXTT7=
EXTT8=
EXTT9=
EXTT10=
EXTT11=
PLAYORDER=
